<svg xmlns="http://www.w3.org/2000/svg"><symbol id="m3-256px" viewBox="0 0 256 256"><path fill="#323996" d="M0 100h37.2v15.8C51.3 104.7 64.7 97 81.3 97s30.5 8 37.2 21.9c17.2-13.3 33.3-21.9 49.9-21.9 25 0 41.4 16.6 41.4 42.7v95.7h-36.9v-81.5c0-19.7-6.1-28.1-18.1-28.1-9.7 0-21.9 6.4-32.2 14.7a24.2 24.2 0 0 1 .3 4.8v90.1H85.5v-81.5c0-19.7-5.6-28.1-17.8-28.1-10.3 0-20 5.3-30.5 14.2v95.4H0z"/><path fill="#7c92ca" d="M218.1 66.7c4.4 2.9 9.3 5 14.1 5s7.9-3.2 7.9-7.5c0-6.3-6.7-10.3-19.2-10.3v-6.2l14.2-16.1h-18.9v-11h39v4.5l-17.3 19.6c10.5 1.9 18.1 8.1 18.1 18.4s-8.1 19.6-22.8 19.6a33.5 33.5 0 0 1-20.1-6.2z"/></symbol><symbol id="m3-64-px" viewBox="0 0 64 64"><path fill="#323996" d="M0 25.8h9.3v4c3.5-2.8 6.9-4.7 11-4.7s7.7 2 9.3 5.4c4.3-3.3 8.3-5.4 12.5-5.4 6.3 0 10.3 4.1 10.3 10.6v24h-9.2V39.3c0-4.9-1.5-7-4.5-7s-5.5 1.6-8 3.7v23.7h-9.3V39.3c0-4.9-1.4-7-4.5-7s-5 1.3-7.6 3.5v23.9H0z"/><path fill="#7c92ca" d="M54.5 17.5a6.7 6.7 0 0 0 3.6 1.2 1.8 1.8 0 0 0 1.9-1.8c0-1.6-1.7-2.6-4.8-2.6v-1.5l3.6-4.1h-4.7V6h9.7v1.1L59.5 12c2.6.5 4.5 2 4.5 4.6s-2 4.9-5.7 4.9a8.2 8.2 0 0 1-5-1.5z"/></symbol><symbol id="m3-32px" viewBox="0 0 32 32"><path fill="#323996" d="M0 11h4.6v2c1.8-1.4 3.5-2.4 5.6-2.4a4.8 4.8 0 0 1 4.6 2.8c2.2-1.7 4.2-2.8 6.3-2.8s5.1 2.1 5.1 5.4v11.9h-4.6V17.7c0-2.4-.8-3.5-2.2-3.5a7 7 0 0 0-4.1 1.9c.1.1.1.4.1.6v11.2h-4.7V17.7c0-2.4-.7-3.5-2.2-3.5A6.6 6.6 0 0 0 4.6 16v11.9H0z"/><path fill="#7c92ca" d="M27.3 6.8a2.8 2.8 0 0 0 1.7.7.9.9 0 0 0 1-1c0-.8-.8-1.3-2.4-1.3v-.7l1.8-2.1H27V1.1h4.9v.5l-2.2 2.5A2.4 2.4 0 0 1 32 6.4c0 1.4-1 2.4-2.9 2.4a4.5 4.5 0 0 1-2.5-.7z"/></symbol><symbol id="m3-16px" viewBox="0 0 16 16"><path fill="#7c92ca" d="M3.9 11.9a7.2 7.2 0 0 0 3.6 1.3 2 2 0 0 0 2.1-2c0-1.6-1.8-2.6-5-2.6V7l3.7-4.2H3.4V0h10.1v1.2L9 6.2c2.7.5 4.7 2.1 4.7 4.8s-2.1 5-5.9 5a8.3 8.3 0 0 1-5.2-1.6z"/></symbol></svg>