<svg xmlns="http://www.w3.org/2000/svg" width="256" height="256" viewBox="0 0 256 256"><path fill="#323996" d="M0 100h37.2v15.8C51.3 104.7 64.7 97 81.3 97s30.5 8 37.2 21.9c17.2-13.3 33.3-21.9 49.9-21.9 25 0 41.4 16.6 41.4 42.7v95.7h-36.9v-81.5c0-19.7-6.1-28.1-18.1-28.1-9.7 0-21.9 6.4-32.2 14.7a24.2 24.2 0 0 1 .3 4.8v90.1H85.5v-81.5c0-19.7-5.6-28.1-17.8-28.1-10.3 0-20 5.3-30.5 14.2v95.4H0z"/><path fill="#7c92ca" d="M218.1 66.7c4.4 2.9 9.3 5 14.1 5s7.9-3.2 7.9-7.5c0-6.3-6.7-10.3-19.2-10.3v-6.2l14.2-16.1h-18.9v-11h39v4.5l-17.3 19.6c10.5 1.9 18.1 8.1 18.1 18.4s-8.1 19.6-22.8 19.6a33.5 33.5 0 0 1-20.1-6.2z"/></svg>