<svg xmlns="http://www.w3.org/2000/svg" width="64" height="64" viewBox="0 0 64 64"><path fill="#323996" d="M0 25.8h9.3v4c3.5-2.8 6.9-4.7 11-4.7s7.7 2 9.3 5.4c4.3-3.3 8.3-5.4 12.5-5.4 6.3 0 10.3 4.1 10.3 10.6v24h-9.2V39.3c0-4.9-1.5-7-4.5-7s-5.5 1.6-8 3.7v23.7h-9.3V39.3c0-4.9-1.4-7-4.5-7s-5 1.3-7.6 3.5v23.9H0z"/><path fill="#7c92ca" d="M54.5 17.5a6.7 6.7 0 0 0 3.6 1.2 1.8 1.8 0 0 0 1.9-1.8c0-1.6-1.7-2.6-4.8-2.6v-1.5l3.6-4.1h-4.7V6h9.7v1.1L59.5 12c2.6.5 4.5 2 4.5 4.6s-2 4.9-5.7 4.9a8.2 8.2 0 0 1-5-1.5z"/></svg>