<svg xmlns="http://www.w3.org/2000/svg" width="32" height="32" viewBox="0 0 32 32"><path fill="#323996" d="M0 11h4.6v2c1.8-1.4 3.5-2.4 5.6-2.4a4.8 4.8 0 0 1 4.6 2.8c2.2-1.7 4.2-2.8 6.3-2.8s5.1 2.1 5.1 5.4v11.9h-4.6V17.7c0-2.4-.8-3.5-2.2-3.5a7 7 0 0 0-4.1 1.9c.1.1.1.4.1.6v11.2h-4.7V17.7c0-2.4-.7-3.5-2.2-3.5A6.6 6.6 0 0 0 4.6 16v11.9H0z"/><path fill="#7c92ca" d="M27.3 6.8a2.8 2.8 0 0 0 1.7.7.9.9 0 0 0 1-1c0-.8-.8-1.3-2.4-1.3v-.7l1.8-2.1H27V1.1h4.9v.5l-2.2 2.5A2.4 2.4 0 0 1 32 6.4c0 1.4-1 2.4-2.9 2.4a4.5 4.5 0 0 1-2.5-.7z"/></svg>